<?xml version="1.0" encoding="utf-8"?>
<!-- Generator: Adobe Adobe Illustrator 24.2.0, SVG Export Plug-In . SVG Version: 6.00 Build 0)  -->
<svg version="1.1" id="Capa_de_vector_1_" xmlns="http://www.w3.org/2000/svg" xmlns:xlink="http://www.w3.org/1999/xlink" x="0px"
	 y="0px" viewBox="0 0 1920 1080" style="enable-background:new 0 0 1920 1080;" xml:space="preserve">
<style type="text/css">
	.st0{fill:#F0962D;}
</style>
<path d="M426.14,1031.63c58.59,0.06,117.18,0.73,175.78,1.27c29.77,0.27,59.52,0.64,89.28,0.79c29.58,0.18,59.17,0.16,88.78,0.14
	c24.45,0,48.89,0.02,73.34,0.05c36.66,0.04,73.33,0.07,109.99,0.01c40.49-0.06,80.96-0.02,121.45,0.03
	c25.63,0.03,51.27,0.06,76.9,0.06c15.78,0,31.53-0.05,47.31,0.02c15.25,0.07,30.52,0.35,45.78,0.47c31.91,0.3,63.83,0.25,95.73,0.3
	c13.92,0.02,27.83,0.09,41.75,0.18c17.11,0.09,34.23,0.18,51.34,0.14c32.6-0.1,65.18,0.03,97.78-0.16c30.7-0.18,61.39-0.54,92.1-0.8
	c27.99-0.21,56-0.53,83.99-0.35c7.6,0.07,15.19,0.09,22.78,0.08c5.06,0.01,10.14,0.02,15.19,0.03c6.59,0.01,13.2,0.02,19.79,0.01
	c2.3,0,4.6-0.02,6.92-0.02c0.2,0.01,0.39,0.01,0.58,0.01c1.08,0,2.19,0,3.25,0.28c2.12-0.05,4.24-0.19,6.37-0.27
	c1.77,0.82,3.92,0.48,5.71-0.12c0.15-0.05,0.29-0.1,0.44-0.16c0.17-0.02,0.35-0.03,0.52-0.05c0.15,0,0.29-0.03,0.43-0.03
	c0.01-0.03,0.01-0.03,0.01-0.03c1.55-0.13,3.1-0.22,4.31-0.3c0.51-0.02,1.01-0.07,1.51-0.14c1.43-0.18,2.86-0.35,4.27-0.75
	c0.47-0.12,0.94-0.17,1.39-0.17c5.26,0.01,9.77,8.29,9.74,18.11c-0.04,10.73-5.42,19.51-11.24,17.93c-1.06-0.29-2.15-0.46-2.93-0.58
	c-0.23,0-0.47-0.03-0.7-0.06l-0.21-0.03c-2.49-0.23-4.97-0.35-6.74-0.56c-2.17-0.2-4.36-0.23-6.54-0.33
	c-2.12-0.06-4.23-0.16-6.36-0.21c-1.44,0.42-2.98,0.27-4.42,0.27c-3.24-0.01-6.48-0.01-9.71,0.01c-7.78,0.01-15.58,0.08-23.36,0.12
	c-13.38,0.08-26.78,0.11-40.14,0.28c-14.48,0.16-28.95-0.07-43.41-0.12c-14.94-0.07-29.87-0.1-44.8-0.19
	c-64.42-0.48-128.83-0.49-193.25-0.28c-30.67,0.1-61.34,0.52-92,0.62c-31.49,0.11-63,0.18-94.48,0.71
	c-31.32,0.56-62.65,0.51-93.98,0.62c-33.46,0.15-66.92,0.33-100.38,0.41c-64.98,0.16-129.98,0.22-194.96,0.57
	c-58.86,0.3-117.69,0.2-176.54,0.78c-29.07,0.31-58.16,0.78-87.22,1.09c-29.41,0.34-58.84,0.96-88.24,1.12
	c-29.48,0.16-58.95,0.47-88.43,0.55c-30.22,0.11-60.44,0.38-90.64,0.23c-13.12-0.07-26.25-0.14-39.36-0.18
	c-6.22-0.01-12.42,0-18.63-0.01c-1.67,0.03-3.34,0.02-5-0.01c-1.54-0.03-3.06-0.38-4.62-0.64c-5.27-0.61-10.59-0.67-15.88-0.94
	c-6.81-0.33-13.62-0.6-20.41-0.99c-15.68-0.89-31.38-1.64-47.06-2.64c-16.43-1.04-32.9-1.87-49.33-3.5
	c-6.47-0.64-13.04-1-19.42-3.18c-1.67-0.58-3.46-1.15-4.94-2.75c-1.43-1.55-2.46-4.6-1.75-7.65c0.59-2.48,1.85-3.88,3.2-4.72
	c1.89-1.2,3.9-1.8,5.87-2.3c7-1.9,14.14-2.29,21.19-2.95c15.8-1.48,31.6-2.33,47.42-3.38c14.97-0.99,29.94-1.81,44.93-2.64
	c6.46-0.33,12.94-0.66,19.4-0.99c5.57-0.27,11.13-0.43,16.68-1.02c1.61-0.25,3.21-0.62,4.84-0.67c2.55-0.08,5.1-0.05,7.64-0.04
	c7.88-0.04,15.74-0.05,23.61-0.09c16.14-0.08,32.28-0.33,48.42-0.36c8.21-0.01,16.43-0.02,24.64-0.01
	C382.97,1031.56,404.55,1031.61,426.14,1031.63z"/>
<path d="M303.35,10.92c15.49,0.07,30.95,0.27,46.42,0.85c16.3,0.61,32.62,0.81,48.92,1.16c16.63,0.35,33.25,0.68,49.87,0.91
	c33.08,0.48,66.15,1.17,99.23,1.62c30.55,0.4,61.09,1.3,91.63,1.57c28.97,0.24,57.94,0.65,86.91,0.99
	c31.42,0.38,62.82,0.63,94.24,0.95c31.99,0.33,63.97,1.14,95.97,1.27c32.63,0.12,65.25,0.11,97.86-0.04
	c63.85-0.24,127.69-1.49,191.54-1.92c32.61-0.19,65.22-0.41,97.82-0.42c33.82-0.04,67.62,0.21,101.45,0.37
	c62.68,0.3,125.38-0.86,188.09-1.7c30.75-0.39,61.48-0.87,92.24-0.68c15.85,0.1,31.72,0.18,47.59-0.06
	c12.15-0.21,24.31-0.15,36.49-0.55c5.56-0.19,11.11-0.26,16.68-0.66c5.06-0.39,10.12-0.31,15.18-0.51c0.7-0.83,1.48-1.44,2.3-1.85
	c0.77-0.4,1.53-0.56,2.28-0.56c1.34,0.01,2.63,0.61,3.81,1.69c2.1,0.97,3.91,3.23,5.19,6.94c1.51,4.37,1.33,10.16-0.06,14.58
	c0,0,0,0,0.01,0.03c-0.06,0.17-0.12,0.34-0.19,0.48c-0.29,0.89-0.65,1.68-1.04,2.43c-0.2,0.35-0.4,0.67-0.61,0.98
	c-1.05-0.25-2.1-0.36-3.17-0.36c-0.69,0-1.39,0.04-2.1,0.12c-1.73,0.19-3.29,0.78-4.63,1.64c-0.16-0.05-0.32-0.1-0.49-0.14
	c-0.74-0.19-1.51-0.29-2.28-0.39c-0.78-0.1-1.59-0.18-2.38-0.25c-0.71-0.07-1.41-0.17-2.14-0.23c-0.4-0.03-0.77-0.04-1.16-0.04
	c-0.49,0-0.97,0.02-1.47,0.09c-0.64,0.08-1.22,0.26-1.79,0.49c-0.02-0.01-0.05-0.01-0.07-0.02c-0.63-0.21-1.27-0.34-1.9-0.39
	c-0.53-0.05-1.05-0.06-1.57-0.02c-1.55-0.05-3.07,0.03-4.55,0.66c-0.3,0.13-0.59,0.27-0.86,0.43c-2.57-0.13-5.16-0.13-7.74-0.18
	c-3.65-0.13-7.29-0.27-10.93-0.34c-13.98-0.23-27.94-0.35-41.91-0.44c-15.33-0.12-30.68,0.13-46.01,0.21
	c-60.05,0.3-120.09-1.14-180.14-1.65c-16.79-0.13-33.58-0.3-50.37-0.34c-17.06,0-34.13,0.18-51.19,0.29
	c-33.77,0.21-67.54,0.53-101.32,0.54c-63.81,0.03-127.64-0.25-191.46-1.1c-32.62-0.45-65.26-0.6-97.91-0.58
	c-32.87,0.05-65.74-0.03-98.61,0.32c-31.87,0.36-63.72,1.15-95.57,1.51c-31.15,0.36-62.31,0.8-93.45,1.18
	c-28.4,0.37-56.8,0.76-85.2,1.15c-31.58,0.45-63.15,1.38-94.73,1.85c-32.78,0.5-65.57,1.25-98.34,1.86
	c-32.7,0.62-65.4,1.38-98.09,2.5c-15.45,0.54-30.9,0.56-46.35,0.61c-14.5,0.03-29.02,0.17-43.54-0.41
	c-15.91-0.63-31.8-0.98-47.7-1.79c-16.01-0.78-32.01-1.93-48.02-2.87c-13.37-0.78-26.73-1.72-40.1-2.88
	c-6.32-0.53-12.66-0.94-18.96-1.93c-1.87-0.29-3.75-0.64-5.61-1.33c-1.45-0.54-3.04-1.55-3.93-3.89c-0.74-1.97-0.73-4.24,0.02-6.22
	c0.85-2.28,2.41-3.3,3.82-3.84c2.34-0.89,4.7-1.27,7.06-1.59c7.48-1.03,15.02-1.6,22.52-2.17c15.4-1.25,30.82-2.27,46.23-3.27
	c15.6-0.99,31.17-2.06,46.75-2.75c8.34-0.37,16.67-0.53,25-0.88c7.45-0.3,14.88-0.66,22.31-0.83c9.05-0.21,18.09-0.26,27.14-0.26
	C291.97,10.88,297.66,10.91,303.35,10.92z"/>
<path d="M1888.86,144.59c-0.33,35.33-0.58,70.65-0.88,105.98c-0.39,45.29-0.7,90.57-1.07,135.86c-0.39,46.88-0.74,93.77-1.18,140.65
	c-0.44,47.63-0.9,95.22-1.54,142.85c-0.64,47.08-1.47,94.17-2.87,141.19c-0.74,24.51-1.27,48.99-2,73.5
	c-0.36,12.1-0.81,24.23-1.25,36.32c-0.22,6.56-0.49,13.13-0.77,19.69c-0.25,5.99-0.56,12.01-1.31,17.89
	c-0.32,2.57-0.9,5.02-1.79,7.1c-1.19,2.77-3.44,4.3-5.24,2.76c-3.32-2.83-3.93-10.14-4.29-16.13c-0.36-5.99-0.51-12.01-0.66-18.04
	c-0.32-12.36-0.51-24.71-0.74-37.04c-0.46-24.26-0.69-48.51-0.95-72.77c-0.26-23.89-0.61-47.74-0.69-71.63
	c-0.09-23.68-0.18-47.34-0.16-71c0.04-47.88,0.34-95.77,0.64-143.65c0.3-46.8,0.63-93.6,0.99-140.4
	c0.34-44.69,0.73-89.34,1.04-134.03c0.28-38.41,0.55-76.82,0.84-115.23c0-1.31,0.01-2.62,0.03-3.94
	c0.08-11.93,5.45-21.9,11.99-21.89C1883.42,122.66,1888.97,132.66,1888.86,144.59z"/>
<path d="M50.09,125.1c0.1,38.55,0.18,77.13,0.29,115.69c0.12,46.69,0.21,93.4,0.3,140.08c0.07,47.51,0.11,95,0.15,142.51
	c0.03,46.77-0.18,93.54-0.54,140.31c-0.18,24.31-0.29,48.62-0.59,72.91c-0.3,23.91-0.86,47.8-1.14,71.68
	c-0.16,13.78-0.34,27.56-0.55,41.38c-0.21,13.5-0.35,27.02-0.86,40.38c-0.27,7.05-0.23,15.32-2.76,21.14
	c-2.17,4.99-6.38,4.92-8.43-0.05c-2.24-5.03-2.42-12.16-2.7-18.35c-0.28-6.19-0.46-12.41-0.63-18.61
	c-0.31-12.27-0.55-24.54-0.78-36.81c-0.48-24.91-0.84-49.85-1.44-74.77c-0.59-24.17-0.92-48.34-1.21-72.51
	c-0.29-23.43-0.65-46.83-0.88-70.26c-0.46-47.14-0.75-94.26-0.95-141.4c-0.2-46.86-0.35-93.68-0.53-140.54
	c-0.18-47.2-0.28-94.4-0.4-141.63c-0.06-23.71-0.13-47.46-0.19-71.2c-0.03-11.93,5.54-21.9,11.99-21.89
	C44.77,103.17,50.06,113.17,50.09,125.1z"/>
<path d="M41.28,864.39c2.64,0.66,4.71,4.98,4.66,9.91c-0.74,20.92,1.72,41.9,4.04,62.3c3.33,14.5,7.75,28.04,11.5,42.17
	c9.7,23.79,23.71,40.17,37.27,55.13c5.19,4.52,10.85,7.21,16.59,7.66c2.14,0.83,4.84,0.35,7.61-0.1
	c6.01-1.04,12.29-2.06,13.36,10.27c2.28,0.89,4.62,1.04,6.9,1.67c1.32,0.69,1.31,4.23-0.01,4.88c-2.49,0.79-5.06-0.13-7.54-0.62
	c-6.75,15.42-20.79,11.91-30.48,11.26c-19.53-5.69-39.1-23.2-49.79-54.76c-9.59-29.5-21.17-58.54-23.8-93.54
	c-1.69-12.84-3.29-27.26,2.08-38.18c1.02-7.21,1.81-18.2,6.73-18.19C40.68,864.28,40.98,864.32,41.28,864.39z"/>
<path d="M96.31,8.64c3.33,0,6.72,0.71,10.14,2.22c0.88,0.68,1.71,1.52,2.45,2.51c6.31-2.55,35.05-11.02,32.5,10.08
	c5.54,0.01,13.61,7.36,7.55,17.97c-4.88,2.99-10.02,3.91-15.22,4.46c-1.01-0.15-2.03-0.26-3.04-0.39c-1.6-0.22-3.24-0.23-4.84-0.46
	c0.49,0.07,0.97,0.15,1.45,0.22c-1.26-0.19-2.49-0.38-3.77-0.42c-0.62-0.02-1.24-0.01-1.86,0c-0.32,0.01-0.62,0.01-0.91,0.02
	c-0.02-0.01-0.04-0.01-0.05-0.01c-0.12,0-0.23,0-0.35,0c0.05,0,0.09,0,0.14,0c-0.68,0-1.36,0.02-2.03,0.03
	c-0.57,0.01-1.13,0.02-1.71,0.02c-1.37-0.07-2.76-0.2-4.13-0.38c-0.37-0.07-0.75-0.15-1.12-0.21c-1.83-0.29-3.41-0.31-5.27-0.15
	c0.48-0.04,0.97-0.08,1.45-0.13c-1.72,0.14-3.44,0.2-5.14,0.38c-0.71,0.08-1.44,0.15-2.15,0.25c-1.61,0.25-3.07,0.72-4.58,1.23
	c-1.27,0.41-2.49,0.83-3.65,1.48c-0.81,0.47-1.51,1.01-2.29,1.49c-0.01,0-0.01,0.01-0.01,0.01c0,0,0.01-0.01,0.01-0.01
	c0,0,0.01,0,0.01,0c-1.22,0.74-2.42,1.52-3.57,2.34c-1.36,0.98-2.44,2.15-3.71,3.21c-1.41,1.07-2.89,2.1-4.18,3.29
	c-0.79,0.72-1.59,1.49-2.27,2.31c-0.71,0.87-1.26,1.77-1.8,2.71c-0.13,0.21-0.26,0.42-0.4,0.63c-0.22,0.25-0.46,0.49-0.69,0.72
	c-0.54,0.52-1.09,1.02-1.65,1.53c-0.98,0.89-1.78,1.86-2.67,2.8c-0.83,0.86-1.7,1.67-2.37,2.64c-0.68,0.96-1.33,1.94-2.02,2.91
	c-0.98,1.36-1.66,2.81-2.44,4.25c-0.53,0.94-1.12,1.85-1.54,2.84c-0.76,1.74-1.51,3.52-2.02,5.34c-0.51,1.81-0.83,3.64-1.28,5.46
	c-0.55,2-0.98,3.99-1.45,5.99c-0.3,1.13-0.67,2.26-0.91,3.41c-0.3,1.38-0.42,2.8-0.63,4.19c-0.07,0.49-0.16,0.99-0.25,1.5
	c-0.19,0.37-0.38,0.75-0.56,1.14c-4.51,10.77-5.72,24.07-5.89,37.25c-0.63,10.64-7.85,17.28-12.81,11.41
	c-5.73-6.38-5.09-20.32-5.04-31.05C28.92,100.25,36,78.36,46.24,62.14C58.56,33.7,76.33,8.64,96.26,8.64
	C96.27,8.64,96.29,8.64,96.31,8.64z"/>
<path d="M1871.76,62.45c3.48,14.78,13.45,21.26,14.48,38.5c0.59,13.04,0.22,26.19,0.64,39.37c0.02,2.89,0.15,5.91-0.03,8.79
	c-0.26,6.27-4.44,9.95-7.21,6.03c-2.4,1.19-4.98-1.27-5.77-5.6c-0.1-0.6-0.19-1.19-0.23-1.8c-7.03,12.48-8.18-23.93-10.69-30.9
	c-0.43-1.95-0.92-3.8-1.47-5.58c0.01-0.15,0.02-0.3,0.03-0.45c0.12-1.66,0.04-3.37-0.16-5.03c-0.2-1.57-0.47-3.14-0.77-4.69
	c-0.1-0.6-0.21-1.18-0.33-1.78c0.01-1.04,0-2.08-0.24-3.12c0.14-0.91,0.14-1.86,0-2.82c-0.12-0.89-0.33-1.76-0.57-2.62
	c0.26-1.75,0.32-3.51,0.32-5.29c0.01-2.05,0.02-4.29-0.4-6.3c-0.13-0.64-0.3-1.28-0.54-1.88c0.32-1.78,0.02-3.67-0.82-5.31
	c-1.05-2.07-2.47-4-3.98-5.87c-0.19-3.13-2.25-6.17-4.04-8.77c-1.14-1.66-2.75-2.97-4.7-3.63c-1.54-2.74-4.49-5.02-7.63-6.23
	c-0.9-0.54-1.82-1.04-2.71-1.46c-2.09-1.02-4.51-2.1-6.99-2.58c-1.11-0.49-2.35-0.85-3.61-1.07c-0.08-0.06-0.16-0.12-0.26-0.17
	c-2.28-1.46-5.07-1.91-7.71-2.57c-0.96-0.24-1.9-0.46-2.85-0.72c-1.18-0.31-2.35-0.45-3.54-0.45c-0.69,0-1.39,0.04-2.1,0.13
	c-1.43,0.16-2.76,0.59-3.93,1.23c-1.78-0.84-3.58-1.57-5.41-2.18c-4.64-0.67-7.92-9.87-3.62-16.08c7.66-5.17,18.53-5.2,26.72-4.05
	c2.73-0.41,5.41-0.63,8.02-0.63C1848.09,16.9,1863.21,28.18,1871.76,62.45z"/>
<path d="M1875.75,946.02c0.02-0.03,0.03-0.03,0.05-0.06c3.93,17.3-16.76,60.03-24.05,71.2c-1.83,22.88-11.53,43.86-24.55,46.6
	c-10.76,0.01-31.14,14.4-35.82-10.84c-1.41-11.73,4.71-19.54,10.5-19.38c2.56-0.54,5.12-0.33,7.69-0.1c2.75,0.23,5.48,0.47,8.2-0.27
	c9.21-6.4,17.15-18.25,24.91-29.14c8.44-15.16,12.61-35.98,20.96-51.38c1.68-5.46,4.93-11.83,8.01-11.83
	C1873.12,940.84,1874.55,942.3,1875.75,946.02z"/>
<path d="M1871.24,953.83c6.85,4.24-1.84,23.74-1.49,33.07c-4.57,23.47-15.01,41.49-24.77,57.93c-6.28,8.23-14.1,10.07-21.27,14.45
	c-3.87,1.88-7.76,5.09-11.84,4c-3.65-0.72-2.91-10.79,0.76-9.62c8.75-3.01,20.24-12.2,27.96-20.6c9.21-16.3,18.7-34.4,21.94-57.82
	c0.94-4.02,2.55-7.41,3.53-11.41c0.85-4.04,1.65-10.18,4.37-10.18C1870.68,953.66,1870.95,953.71,1871.24,953.83z"/>
<path d="M1872,960.13c4.34,3.46,0.82,12.76-0.39,18.18c-5.02,20.02-11.68,39.15-21.08,53.2c-3.1,4.44-13.28,23.8-16.53,14.37
	c-0.14-1.37,0.19-2.8,0.93-3.42c-0.11-0.86,0.11-1.85,0.57-2.25c0.59-0.54,1.32,0.06,1.52,1.12c13.52-16.01,22.06-42.21,28.5-68.54
	c1.4-4.37,2.19-13,5.36-12.99C1871.21,959.8,1871.59,959.91,1872,960.13z"/>
<path d="M1869.51,967.55c4.86,4.01-2.11,20.91-3.23,27.39c-5.68,20.36-13.12,39.69-23.87,51.97c-1.99,1.71-7.1,8.94-8.35,3.26
	c-0.09-1.51,0.97-2.54,1.59-1.57c12.01-12.24,19.5-34.51,25-56.85c1.95-7.16,3.36-14.75,5.48-21.73c0.53-1.72,1.49-2.77,2.49-2.77
	C1868.92,967.26,1869.22,967.35,1869.51,967.55z"/>
<path d="M1868.06,971.65c7.65,3.64-7.04,40.19-9.12,48.23c-3.8,10.81-9.08,19.58-15.16,25.91c-3.21,2.93-6.76,7.89-10.45,6.43
	c-1.79,0.68-2.68-3.46-0.69-3.94c0.99,0.32,2.08-0.08,2.92-0.74c8.93-7.4,16.5-20.17,20.46-36.79c2.34-9.21,4.49-18.62,6.57-27.24
	c1.2-4.19,1.81-11.96,4.89-11.95C1867.65,971.56,1867.85,971.59,1868.06,971.65z"/>
<path d="M1865.65,987.74c5.69,7.2-11.4,35.16-14.17,42.63c-4.65,9.98-10.36,18.61-17.28,22.56c-2.11,1.05-6.44,2.95-6.45-3.18
	c0.18-3.88,2.37-4.1,4-3.24l0.03,0.06c6.95-2.75,12.24-12.36,16.46-22.36c4.77-11.77,9.83-21.92,13.9-34.36
	c0.5-1.64,1.42-2.62,2.37-2.62C1864.89,987.23,1865.28,987.39,1865.65,987.74z"/>
<path d="M1861.82,997.95c3.83,3.35,0.19,11.79-1.02,16.46c-6.39,20.76-17.53,32.98-29.69,39.51c-1.48,0.74-3.93,0.73-4.28-2.72
	c-0.07-2.05,1.5-2.65,1.91-0.82c2.81,0.49,5.21-4.47,7.83-6.06c7.37-5.29,12.71-15.95,17.02-27.64c1.96-5.13,3.62-10.66,5.01-16.37
	c0.42-1.67,1.41-2.63,2.37-2.62C1861.26,997.69,1861.55,997.77,1861.82,997.95z"/>
<path d="M1861.37,997.15c5.41,2.78-1.94,28.93-4.84,33.06c-4.1,6.27-24.1,34.45-27.71,21.8c-0.04-0.94,0.13-1.88,0.3-2.8
	c0.46-2.4,2.53-1.05,2.03,1.32c5.38-2.13,10-9.54,14.31-15.09c3.99-5.81,8.45-11.42,10.38-20.44c1.85-5.01,1.22-17.88,5.23-17.87
	C1861.17,997.13,1861.27,997.13,1861.37,997.15z"/>
<path d="M1860.99,999.55c4.36,2.18,2.08,11.79,0.73,16.92c-4.67,19.82-15.03,32.33-25.9,38.78c-1.93,1.11-4.04,1.85-5.98,0.39
	c-0.98-0.6-1.42-2.71-0.93-4.43c0.41-2.2,2.27-1.02,1.89,1.12c8.49-4.95,17.11-14.92,22-28.83c1.94-6.07,3.37-12.43,4.26-19.25
	c0.33-2.75,1.76-4.84,3.28-4.83C1860.56,999.41,1860.78,999.46,1860.99,999.55z"/>
<path d="M1865.17,1004.32c-0.57,22.2-13.6,34.44-22.69,45.04c-4.25,4.19-8.98,8.37-13.87,8.64c-0.5-0.12-1.01-0.37-1.35-1.12
	c-1.33-2.89,1.32-5.39,2.15-7.56c0.75-1.57,2.19,0.06,1.75,1.94c10.42-10.22,21.61-22.24,27.23-41.77c0.85-2.71,0.09-6.25,1.33-8.61
	c0.61-1.32,1.44-1.91,2.26-1.91C1863.54,998.98,1865.1,1001.08,1865.17,1004.32z"/>
<path d="M1864.29,987.45c4.45,2.64,0.85,12.59-0.11,17.92c-6.17,24.73-18.11,46.05-32.2,54.77c-0.9,0.17-2.08,0.17-2.64-1.46
	c-0.34-1.23-0.04-2.68-0.05-4.02c0.32-3.11,2.46-1.51,1.94,1.23c11.82-11.1,22.16-29.74,27.38-52.42c1.73-4.9,1.3-16.06,5.3-16.06
	C1864.03,987.42,1864.16,987.43,1864.29,987.45z"/>
<path d="M1872.26,966.55c4.55,3.89-2.63,19.74-3.74,25.7c-6.41,20.05-13.14,41.46-24.99,51.91c-2.16,1.45-8.08,9.14-9.39,3.6
	c-0.03-1.77,1.2-3.28,1.93-1.79c0,0.03,0.02,0.03,0.02,0.03c15.9-9.81,22.18-40.9,29.59-65.77c1.76-4.21,2.66-13.79,5.99-13.78
	C1871.86,966.46,1872.06,966.49,1872.26,966.55z"/>
<path d="M1872.01,968.38c4.88,3.49-2.7,32.38-5.01,38.06c-2.28,5.96-5.05,11.2-7.72,16.59c-1,1.77-2.46,2.76-3.81,2.1
	c-1.27-0.46-0.84-4.03,0.41-3.57c0.71,0.34,1.32-0.14,1.85-0.91c4.79-9.43,8.8-21.15,9.98-34.02c0.88-5.61-0.96-18.4,3.45-18.39
	C1871.43,968.24,1871.71,968.29,1872.01,968.38z"/>
<path d="M1874.34,946.73c3.43,1.72,1.68,9.51,1.51,14.1c-1.62,20.06-5.88,43.99-15.54,55.07c-1.85,0-1.36-6.85,0.39-5.82
	c4.39-11.46,8.26-23.92,9.17-37.96c1.11-6.71-1.1-25.41,4.27-25.4C1874.2,946.72,1874.27,946.72,1874.34,946.73z"/>
<path d="M1865.15,950.25c-2.16,11.92-5.27,23.82-6.71,22.61c-1.21-0.12-1.22-3.54-0.01-3.68c3.09-12.41,5.58-25.7,6.44-39.28
	c0.07-1.37,0.72-2.45,1.48-2.37c0.05-0.01,0.09-0.02,0.14-0.02C1868.42,927.52,1867.22,938.9,1865.15,950.25z"/>
<path d="M1869.81,906.14c0.81,11.44-1.58,22.85-2.98,33.89c-1.86,10.47-2.47,21.85-4.58,31.98c-1.56,2.79-3.16-3.37-1.49-4.83
	c1.36-18.89,5.04-37.23,5.6-56.29c-0.01-2.65-0.63-6.59,1.32-7.36c0.12-0.05,0.24-0.07,0.36-0.07
	C1868.87,903.47,1869.65,904.57,1869.81,906.14z"/>
<path d="M1868.96,879.6c3.21,1.29,1.28,9.36,1.39,13.61c-1.59,23.22-3.06,46.34-5.59,69.27c-0.13,2-1.19,4.25-2.2,2.39
	c-0.66-2.03-0.27-4.62-0.32-6.91c0.02-0.94,0.49-1.68,0.98-1.71c1.17-24.45,2.98-48.85,3.68-73.36c0.05-1.87,0.98-3.31,1.95-3.31
	C1868.89,879.59,1868.93,879.59,1868.96,879.6z"/>
<path d="M1852.5,1048.7c9.32,7.79-31.55,17.18-30.83,8.27c0.19-0.62-0.13-1.61,0.9-1.69c1.06-0.07,0.94,0.9,1.02,1.54
	c0.73,0.71,1.99,0.54,2.94,0.62c7.88-0.47,15.48-2.82,21.52-7.33C1848.33,1048.32,1851,1047.49,1852.5,1048.7z"/>
<path d="M1860.44,1042.36c2.36,2.04-0.39,4.46-2.19,5.88c-11.5,11.28-28.18,13.66-43.86,8.55c-1.3-0.21-0.96-2.07,0.37-1.83
	c16.55,4.33,31.07,0.84,42.22-10.96C1856.4,1042.27,1859.12,1040.97,1860.44,1042.36z"/>
<path d="M1874.16,858.18c1.88,0.3,3.59,1.29,4.7,2.69c0.96,1.22,1.36,2.62,1.3,4.08c0.01,0,0.02,0,0.03,0
	c-0.81,7.09,0.42,13.91,0.69,20.97c0.67,7.45,0.98,13.91,0.43,21.51c-0.86,5.56,1.37,11.92-1.57,17c-0.37,8.96-0.38,17.93-0.37,26.9
	c2.33,2.82-0.02,6.16,0.12,9.23c0.65,8.85,5.15,17.27,3.33,26.3c-2.88,25.19-3.8,55.16-29.15,71.23
	c-8.59,4.9-18.38,9.21-28.65,10.03c-8.92,0.3-25.84-0.98-22.75-12.39c0.82-2.49,3.5-4.8,6.41-5.24c3.26-0.79,5.97,1.05,9.13,1.19
	c6.74-0.5,12.57-3.91,18.57-6.38c3.94-7.61,7.48-15.4,12.01-22.75c0.87-4.32,1.76-9.47,6.11-12.14c0.24-4.01,1.41-7.92,2.5-11.8
	c0.04-2.76-0.1-5.84,1.88-8.1c1-6.47,0.75-13.32,3.25-19.49c0.12-3.88-0.61-7.71-0.57-11.58c0.69-8.44-7.68-21.89,2.26-27.42
	c-0.27-14.52,0.83-29,1.01-43.43c-0.12-5.96-0.01-11.92,0.3-17.88C1864.97,864.93,1865.45,857.23,1874.16,858.18z"/>
<path d="M1874.95,892.27c6.21,0.89,7.77,6.53,7.76,11.35c0.93,7.03,0.37,14.07,0.38,21.13c1.08,10.38,1.88,20.73,0.79,31.17
	c-0.63,10.46-0.17,20.94-1.26,31.38c0.14,5.25-5.05,10.06-11.07,8.62c-0.97,1.92-4.54,2.76-5.73,0.6
	c-2.95,8.51-6.11,17.17-11.95,24.48c-4.93,6.4-11.82,11.27-18.42,16.22c-7.36,4.14-14.67,10.22-23.97,9.31
	c-7.68-0.34-19.58,1.1-19.67-8.69c0.19-1.5,0.59-2.71,1.17-3.68c1.63,0.49,3.48,0.16,5.06-0.36c0.47-0.15,0.9-0.35,1.31-0.57
	c0.67,0.09,1.33,0.13,2.02,0.04c0.15-0.02,0.3-0.04,0.47-0.07c0.54,0.04,1.08,0.06,1.6,0.04c1.37-0.04,2.72-0.22,3.97-0.74
	c0.34-0.15,0.68-0.3,1.01-0.49c1.24-0.2,2.39-0.72,3.24-1.57c1.16-0.06,2.25-0.19,3.24-0.44c7.59-3.87,14.38-8.67,20.6-14.15
	c13.5-14.23,15.67-34.01,20.71-51.02c4.69-16.74,10.22-33.41,8.69-50.86c0.23-7.85-4.08-21.75,8.59-21.75
	C1873.95,892.22,1874.44,892.24,1874.95,892.27z"/>
<path d="M1832.24,16.27c8.28,0.19,20.38,0.41,24.31,8.13c3.37,2.07,7.11,4.1,8.94,7.52c3.46,3.03,7.11,6.1,9.17,10.06
	c6.29,8.99,9.53,19.07,12.27,29.33c1.23,5.21,2.13,10.51,2.58,15.82c0.57,6.05-1.16,12,0.1,18.03c0.65,8.63,0.03,17.25,0.47,25.94
	c0.06,4.13,0.67,8.93-2.48,12.33c-2.33,2.5-5.59,2.49-8.84,2.53c-8.39,0.39-9.49-6.9-8.39-12.73c0.34-5.35,0.51-10.7,0.54-16.06
	c-3.45-6.67-0.89-15.81-2.59-23.19c-2.33-0.56-4.02-2.69-3.91-4.86c0.07-1.35,0.84-2.63,1.98-3.5
	c-0.66-11.86-26.52-32.99-12.74-41.72c-1.37-1.27-2.56-2.67-3.35-4.24c-2.8-1.13-5.49-2.53-7.68-4.47
	c-0.66-0.58-1.16-1.26-1.51-1.99c-2.01-0.44-4.05-1.05-5.71-2.14c-3.94,0.27-8.53,1.72-11.99-0.8c-7.62,0.85-14.97,2.92-22.75,2.31
	c-2.57,0.1-5.21,0.21-7.42-1.2c-5.46-3.04-4.85-10.85,0.97-13.25c4.98-2.19,10.62-0.54,15.92-0.76
	C1817.46,17.08,1824.9,14.58,1832.24,16.27z"/>
<path d="M1878.07,697.54c1.75,1.37,1.84,3.56,2,5.52c4.33,12.22,2.05,25.84,4,38.51c0.75,10.29,1.34,20.63,1.43,30.95
	c-0.4,4.81,0.97,10.21-1.5,14.63c-0.46,32.59,0.55,65.12,0.11,97.7c1.66,0.99,2.37,2.83,2.77,4.48c0.01,0,0.02,0,0.03-0.01
	c-0.56,15.81-1.66,31.67-1.8,47.51c-0.13,3.97-0.31,7.95-0.59,11.91c-0.12,2.71-0.13,6.46-3.69,7.35c-0.08,1.29-0.13,2.57-0.15,3.86
	c5.53,1.9,1.58,12.56,1.54,16.85c-1.19,7.82-2.86,15.65-2.43,23.56c0.02,1.98-1.96,3.65-4.08,3.83c-9.1-0.05-3.64-14.6-3.56-19.46
	c-1.09-1.79-0.21-3.95-0.06-5.84c1.08-12.42,0.97-24.9,2.6-37.29c-1.07-0.2-1.6-1.74-0.93-2.48c-0.02-0.56-0.03-1.13-0.05-1.69
	c-1.62-0.94-2.03-3.65-2.05-4.99c-0.08-3.55,0.08-7.07,0.02-10.61c-1.57-1.64-0.96-3.89-0.82-5.85c-3.37-2.01-2-6.07-1.96-9.11
	c0.42-4.79,1.01-9.56,1.53-14.33c-4.95-25.66-1.51-51.9-0.38-77.75c1-21,2.87-42.01,2.05-63.02c-0.55-8.8-0.65-17.59-0.39-26.37
	c-0.05-7.1-2.01-14.57-0.57-21.53c-0.09-1.18-0.22-2.38-0.06-3.55C1871.09,697.26,1875.53,695.48,1878.07,697.54z"/>
<path d="M107.04,1054.63c13.75,1.82,27.93,0.31,41.84,0.9c7.32-0.54,14.6,0.83,22,0.73c3.91,0.13,12.52-0.43,9.25,5.29
	c0.27,0.2,0.49,0.46,0.68,0.76c0.24,0.41,0.36,0.88,0.34,1.35c4.16,0.14,8.42,0.13,12.51,0.88c0.72,0.2,1.36,0.54,1.78,1.12
	c1.08,1.33,0.4,3.45-1.38,3.97c-9.8,0.91-21.25-0.94-31.5-0.68c-9.23,0.02-18.29,1.07-27.45,2.03c-4.21,0.02-9.74,2.18-12.91-1.22
	c-1.56-0.6-2.63-2.28-2.06-3.75c-3.76-0.86-7.58-0.86-11.37-1.54c-0.9-0.2-1.41-0.92-1.48-1.68c-2.11-0.91-5.2-1.76-4.58-4.45
	C103.19,1056.61,104.89,1054.64,107.04,1054.63z"/>
<path d="M36.92,824.57c0.26,0.95,0.26,1.98,0.34,2.95c0.01,0.15,0.02,0.29,0.03,0.44c1.29,0.46,1.77,1.75,1.87,2.9
	c0.46,4.76,0.36,9.55,0.13,14.32c1.63,2.65,0.07,6.07,0.33,9.01c-0.41,8-1.08,16.27-0.78,24.15c1.76,2.28,1.23,5.45,1.71,8.11
	c-0.22,2.81,1.57,7.92-1.43,9.65c0.09,1.23,0.17,2.45,0.24,3.68c1.74,3.58,0.95,7.84,0.77,11.65c0.06,1.56-0.89,3.51-2.98,3.17
	c-0.98-0.17-1.85-0.94-1.9-1.86c-0.02-2.79-1.18-5.47-1.06-8.29c0.04-2.61,0.88-5.07,0.37-7.7c-9.33,6.48-5.95-25.12-5.75-28.99
	c0.19-7.49,0.81-14.97,0.78-22.46c0.01-1.1,0.85-2.06,1.95-2.47c0.05-6.04,2.01-11.87,0.84-17.88
	C32.43,822.6,36.38,822.26,36.92,824.57z"/>
<path d="M39.13,865.9c1.2,1.12,1.25,2.6,1.39,4.05c0.71,5.61,1.05,11.2,0.73,16.84c0.6,20.92,2.31,41.59,3.83,62.29
	c0.07,4.4,2.08,8.34,3.21,12.58c1.68,6.1,2.41,12.38,3.86,18.53c2.87,11.34,2.57,23.6,9.04,33.67
	c10.08,13.63,20.58,27.17,35.47,36.95c2.27,1.93,7.22,3.38,4.91,6.8c1.76,1.06,8.85,0.8,6.95,3.25c-0.26,0.24-0.69,0.32-1.08,0.32
	c-5.49-0.3-10.78-1.31-16.26-1.38c-12.34-2.75-22.75-10.61-31.68-18.41c-7.74-7.61-12.17-17.06-15.78-26.68
	c-3.76-9.35-6.46-19.03-7.19-28.94c-1.86-12.33-3.86-24.69-4.61-37.11c-2.01-4.16-2.14-8.56-1.93-13.02
	c-0.22-5.78-3.42-11.24-1.63-17.07c1.17-6.45,1.35-12.16,0.88-18.49c0.6-7.66,1.05-15.31,1.48-22.98
	c0.91-3.87-0.74-10.09,3.83-12.17C36.16,864.38,37.95,864.79,39.13,865.9z"/>
<path d="M165.22,6.72c1.11,0.06,2.2,0.16,3.28,0.36c1.76,0.31,3.11,1.2,4.04,2.54c6.89,0.74,13.89,0.83,20.78,1.76
	c2.46,0.21,5.12,0.93,6.28,3.07c3.38,0.83,6.79,0.38,9.88,1.62c2.77,1.51,2.71,5.6-0.29,6.85c-1.34,0.61-2.88,0.43-4.17,1.09
	c-3.29,0.75-6.75-0.39-10.08-0.54c-6.82-0.04-13.69,1.47-20.94,0.93c-3.14,1.96-7.14,0.52-10.54-0.01
	c-9.41-1.41-18.5-2.57-27.69-1.97c-10.51-0.76-22.87,1.14-32.68-2.25c-2.28-0.08-4.76-0.61-5.96-2.52
	c-3.33-2.51-2.28-7.61,1.82-8.91c4.26-0.97,8.9-0.64,13.22-0.08c10.19,0.11,20.37,0.77,30.61,0.5c1.62,0.02,3.32-0.43,4.82-0.93
	C152.72,6.87,159.75,6.87,165.22,6.72z"/>
<path d="M81.98,13.61c4.92,2.84-1.65,6.59-4.13,8.33c-10.77,8.57-17.94,20.39-23.71,32.08c-6.22,13.73-10.09,28.14-12.11,42.84
	c-2.99,6.59,0.93,27.94-9.2,27.7c0.1,2.35,1.44,5.34-1.01,7.08c1.22,4.12,1.62,8.36,2.27,12.57c0.11,1-0.44,1.97-1.37,2.51
	c0.12,1.69-1.68,2.97-3.47,2.7c-2.43-0.32-2.65-2.78-2.87-4.53c-0.43-3.95-0.97-8.33-1.66-12.02c-0.41-0.42-0.65-0.94-0.71-1.5
	c-0.01,0-0.02,0-0.03,0.01c-0.35-3.91-0.79-7.8-1.46-11.67c-1.95-5.06-1.97-12.06-1.87-17.5c-1.12-2.06-0.62-4.56-0.83-6.79
	c0.24-2.41-0.65-5.38,1.15-7.4c0.13-5.31-0.71-11.3,1.56-16.26c0.82-2.63,0.03-7.08,3.56-8.09c2.94-10.56,6.63-21.04,12.64-30.62
	c3.78-6.85,11.5-10.43,18.95-13.4c6.47-2.73,13.48-4.83,20.38-6.1C79.58,13.48,80.6,13.11,81.98,13.61z"/>
<path class="st0" d="M46.53,901.8c0.41-3.9,0.47-8.01,0.61-11.77c0.51-13.35,0.65-26.88,0.85-40.38
	c0.21-13.81,0.39-27.59,0.55-41.38c0.29-23.88,0.85-47.77,1.15-71.68c0.3-24.28,0.41-48.59,0.58-72.9
	c0.36-46.77,0.57-93.54,0.55-140.31c-0.05-47.52-0.08-94.99-0.15-142.51c-0.09-46.68-0.19-93.39-0.3-140.08
	c-0.11-38.55-0.19-77.14-0.29-115.68c0-1.58-0.1-3.13-0.29-4.62c0.87-4.38,2.06-8.55,3.67-12.4c0.18-0.4,0.36-0.77,0.56-1.15
	c0.09-0.5,0.18-1.01,0.25-1.5c0.21-1.39,0.33-2.81,0.63-4.19c0.25-1.15,0.61-2.28,0.91-3.41c0.47-2,0.9-3.99,1.45-5.99
	c0.44-1.82,0.76-3.65,1.28-5.46c0.51-1.82,1.26-3.61,2.02-5.34c0.42-0.99,1.02-1.9,1.54-2.84c0.78-1.44,1.46-2.9,2.44-4.25
	c0.69-0.96,1.34-1.94,2.02-2.91c0.68-0.97,1.54-1.79,2.37-2.64c0.89-0.94,1.68-1.91,2.67-2.8c0.56-0.5,1.11-1,1.65-1.53
	c0.23-0.23,0.47-0.47,0.69-0.72c0.14-0.21,0.27-0.42,0.4-0.63c0.54-0.94,1.09-1.84,1.8-2.71c0.68-0.81,1.47-1.59,2.27-2.31
	c1.3-1.19,2.77-2.23,4.19-3.29c1.26-1.06,2.35-2.23,3.71-3.21c1.13-0.81,2.34-1.59,3.54-2.33c0-0.01,0.01-0.01,0.01-0.01
	c0.78-0.48,1.47-1.02,2.29-1.48c1.16-0.66,2.37-1.08,3.65-1.48c1.51-0.51,2.97-0.98,4.58-1.23c0.71-0.1,1.44-0.17,2.15-0.25
	c1.71-0.18,3.42-0.24,5.14-0.38c-0.48,0.04-0.97,0.08-1.45,0.12c1.86-0.17,3.44-0.15,5.27,0.15c0.37,0.06,0.75,0.14,1.12,0.21
	c1.37,0.18,2.76,0.3,4.13,0.38c0.57,0,1.13-0.01,1.71-0.02c0.63-0.01,1.26-0.03,1.89-0.03c0.12,0,0.23,0,0.35,0
	c0.01,0,0.02,0,0.05,0.01c0.29-0.01,0.6-0.01,0.91-0.02c0.62-0.01,1.24-0.02,1.86,0c1.29,0.04,2.51,0.23,3.78,0.42
	c-0.48-0.07-0.96-0.15-1.45-0.22c1.6,0.23,3.24,0.24,4.84,0.46c1.02,0.14,2.03,0.24,3.05,0.39c4.64-0.48,9.25-1.28,13.65-3.57
	c2.21,0.15,4.42,0.28,6.63,0.41c16.01,0.94,32.01,2.1,48.02,2.87c15.89,0.81,31.79,1.16,47.7,1.79c14.52,0.58,29.03,0.44,43.54,0.41
	c15.45-0.05,30.9-0.07,46.35-0.61c32.69-1.12,65.39-1.88,98.09-2.5c32.77-0.61,65.56-1.37,98.34-1.86
	c31.58-0.48,63.15-1.4,94.73-1.85c28.4-0.39,56.8-0.78,85.2-1.15c31.15-0.38,62.31-0.82,93.45-1.18c31.85-0.36,63.7-1.15,95.57-1.51
	c32.87-0.36,65.74-0.28,98.61-0.32c32.64-0.01,65.29,0.14,97.91,0.58c63.83,0.86,127.65,1.13,191.46,1.11
	c33.78-0.01,67.55-0.33,101.32-0.54c17.06-0.11,34.13-0.3,51.19-0.29c16.79,0.05,33.58,0.22,50.37,0.35
	c60.05,0.5,120.09,1.95,180.14,1.65c15.33-0.08,30.68-0.33,46.01-0.21c13.97,0.09,27.93,0.21,41.91,0.44
	c3.63,0.06,7.28,0.21,10.93,0.34c2.58,0.05,5.17,0.05,7.74,0.18c0.28-0.16,0.56-0.3,0.87-0.43c1.47-0.63,2.99-0.71,4.55-0.66
	c0.51-0.04,1.04-0.03,1.57,0.02c0.63,0.05,1.27,0.18,1.9,0.39c0.02,0.01,0.05,0.01,0.07,0.02c0.57-0.23,1.15-0.41,1.79-0.49
	c0.5-0.07,0.98-0.09,1.47-0.09c0.39,0,0.76,0.01,1.16,0.04c0.72,0.06,1.43,0.16,2.14,0.23c0.79,0.07,1.6,0.15,2.38,0.25
	c0.77,0.09,1.54,0.2,2.28,0.39c0.16,0.05,0.33,0.09,0.48,0.15c0.22-0.15,0.46-0.28,0.7-0.41c0.47-0.25,0.96-0.47,1.47-0.66
	c0.19-0.06,0.37-0.13,0.56-0.19c0.02,0,0.05-0.01,0.08-0.02c0.15-0.04,0.32-0.08,0.48-0.13c0.22-0.05,0.47-0.1,0.7-0.15
	c0.21-0.04,0.42-0.07,0.63-0.09h0.01c0.71-0.08,1.41-0.13,2.1-0.13c0.29,0,0.58,0.01,0.88,0.03c0.27,0.01,0.55,0.03,0.82,0.06
	c0.1,0.01,0.21,0.03,0.32,0.05c0.2,0.02,0.41,0.05,0.61,0.1c0.02-0.01,0.03-0.01,0.05,0.01c0.29,0.04,0.57,0.11,0.86,0.19
	c0.95,0.26,1.89,0.48,2.85,0.72c2.64,0.66,5.43,1.11,7.71,2.57c0.09,0.05,0.18,0.1,0.26,0.17c1.26,0.22,2.5,0.58,3.61,1.07
	c2.48,0.48,4.9,1.56,6.99,2.58c0.89,0.43,1.81,0.92,2.71,1.46c3.14,1.21,6.09,3.49,7.63,6.23c1.95,0.66,3.55,1.97,4.7,3.63
	c1.79,2.6,3.86,5.65,4.04,8.77c1.52,1.86,2.93,3.8,3.98,5.87c0.84,1.64,1.13,3.53,0.82,5.31c0.23,0.61,0.41,1.24,0.54,1.88
	c0.42,2.02,0.41,4.26,0.4,6.3c0,1.78-0.06,3.54-0.32,5.29c0.25,0.87,0.46,1.74,0.57,2.62c0.14,0.96,0.14,1.91,0,2.82
	c0.25,1.03,0.26,2.07,0.24,3.12c0.12,0.6,0.22,1.18,0.33,1.78c0.3,1.56,0.57,3.13,0.77,4.69c0.2,1.66,0.28,3.37,0.16,5.03
	c-0.01,0.16-0.02,0.3-0.04,0.45c0.55,1.78,1.04,3.64,1.47,5.58c1.09,3,1.91,11.45,3.07,19.11c-0.63,2.65-0.99,5.54-1.02,8.57
	c-0.01,1.32-0.02,2.62-0.02,3.94c-0.29,38.41-0.57,76.81-0.85,115.22c-0.3,44.68-0.69,89.35-1.03,134.03
	c-0.36,46.8-0.7,93.6-0.99,140.4c-0.3,47.88-0.61,95.77-0.64,143.65c-0.02,23.65,0.07,47.31,0.16,71
	c0.08,23.88,0.43,47.74,0.69,71.63c0.25,24.26,0.49,48.51,0.94,72.77c0.17,9.24,0.32,18.5,0.52,27.78c0,0.04,0,0.08,0,0.14
	c-0.02,2.31-0.01,4.62,0.03,6.93c-6.77,3.75-5.05,11.19-3.49,18.21c-1.31,4.88-2.74,9.74-4.11,14.6
	c-1.87,6.31-3.35,13.02-5.15,19.67c-2.49,6.94-5.12,13.67-8.4,19.55c-3.54,4.98-7.13,10.14-10.85,14.91
	c-5.19,4.2-10.8,7.93-16.91,11.05c-0.99,0.25-2.09,0.39-3.25,0.44c-0.85,0.86-2.01,1.37-3.24,1.58c-0.33,0.19-0.67,0.35-1.01,0.49
	c-0.63,0.26-1.27,0.44-1.94,0.55c-0.07,0.01-0.15,0.02-0.22,0.03c-0.2,0.03-0.4,0.05-0.6,0.07c-0.3,0.03-0.61,0.06-0.91,0.07
	c-0.11,0-0.2,0.01-0.3,0.01c-0.53,0.02-1.06,0-1.6-0.04c-0.16,0.03-0.32,0.05-0.47,0.07c-0.69,0.08-1.36,0.05-2.02-0.04
	c-0.28,0.16-0.57,0.3-0.88,0.42c-0.14,0.05-0.29,0.1-0.43,0.16c-0.65,0.22-1.36,0.4-2.06,0.5c-0.55,0.08-1.1,0.11-1.65,0.08
	c-0.04,0.01-0.07,0-0.09,0c-0.09-0.01-0.19-0.02-0.28-0.03c-0.2-0.01-0.39-0.04-0.56-0.08c-0.37-0.08-0.74-0.2-1.08-0.36
	c-2.14,0.08-4.25,0.22-6.37,0.27c-1.08-0.28-2.17-0.28-3.25-0.28c-0.21,0-0.4,0-0.58-0.01c-2.31,0-4.63,0.02-6.92,0.02
	c-6.59,0.01-13.21,0-19.8-0.01c-5.05-0.01-10.12-0.02-15.19-0.03c-7.57,0.01-15.17,0-22.77-0.08c-28-0.18-56.01,0.13-83.99,0.35
	c-30.72,0.26-61.41,0.61-92.1,0.8c-32.61,0.19-65.19,0.06-97.78,0.16c-17.11,0.05-34.24-0.05-51.35-0.14
	c-13.91-0.09-27.82-0.15-41.75-0.18c-31.91-0.05-63.81,0-95.72-0.3c-15.26-0.12-30.53-0.4-45.79-0.47
	c-15.78-0.07-31.53-0.02-47.31-0.02c-25.62,0.01-51.26-0.03-76.9-0.06c-40.49-0.05-80.95-0.1-121.43-0.04
	c-36.68,0.06-73.33,0.03-110-0.01c-24.45-0.03-48.88-0.04-73.33-0.05c-29.62,0.02-59.21,0.04-88.78-0.14
	c-29.76-0.15-59.51-0.52-89.29-0.79c-58.6-0.53-117.18-1.21-175.78-1.27c-21.59-0.03-43.16-0.07-64.75-0.08
	c-8.22,0-16.43,0.01-24.64,0.02c-16.15,0.03-32.28,0.28-48.43,0.36c-7.85,0.04-15.73,0.05-23.61,0.09c-2.55-0.01-5.1-0.04-7.64,0.04
	c-1.61,0.05-3.23,0.42-4.84,0.67c-5.54,0.59-11.1,0.75-16.67,1.02c-6.48,0.33-12.95,0.66-19.4,0.99
	c-14.98,0.82-29.97,1.65-44.93,2.64c-15.83,1.05-31.63,1.9-47.43,3.38c-2.86,0.27-5.74,0.5-8.61,0.79
	c-5.69-0.47-11.29-3.16-16.43-7.64c-13.57-14.95-27.57-31.34-37.27-55.13c-3.76-14.14-8.17-27.68-11.5-42.18
	C48.68,925.15,47.34,913.51,46.53,901.8z"/>
</svg>
